<svg version="1.2" xmlns="http://www.w3.org/2000/svg" viewBox="0 0 256 256" width="1024" height="1024">
	<title>analysis-svgrepo-com (2)-svg</title>
	<style>
		.s0 { fill: #ffffff;stroke: #2ca9bc;stroke-linecap: round;stroke-linejoin: round;stroke-width: 20.5 } 
		.s1 { fill: none;stroke: #000000;stroke-linecap: round;stroke-linejoin: round;stroke-width: 20.5 } 
		.s2 { fill: #2ca9bc;stroke: #ff0050;stroke-linecap: round;stroke-linejoin: round;stroke-width: 20.5 } 
	</style>
	<g id="SVGRepo_iconCarrier copy">
		<path id="secondary" class="s0" d="m224 160l-30.2-30.2m-55.1-23.1c0 12.9 7.8 24.6 19.7 29.5 12 5 25.7 2.2 34.9-6.9 9.1-9.2 11.9-22.9 6.9-34.9-4.9-11.9-16.6-19.7-29.5-19.7-4.2 0-8.4 0.8-12.3 2.4-3.9 1.6-7.4 4-10.4 6.9-2.9 3-5.3 6.5-6.9 10.4-1.6 3.9-2.4 8.1-2.4 12.3zm0 74.6h-64m21.3-42.6h-21.3"/>
		<path id="primary" class="s1" d="m181.3 181.3v32c0 1.4-0.2 2.8-0.8 4.1-0.5 1.3-1.3 2.5-2.3 3.5-1 1-2.2 1.8-3.5 2.3-1.2 0.5-2.6 0.8-4 0.8h-128c-1.4 0-2.8-0.3-4.1-0.8-1.3-0.5-2.5-1.3-3.5-2.3-1-1-1.8-2.2-2.3-3.5-0.5-1.3-0.8-2.7-0.8-4.1v-170.6c0-1.4 0.3-2.8 0.8-4.1 0.5-1.3 1.3-2.5 2.3-3.5 1-1 2.2-1.8 3.5-2.3 1.3-0.5 2.7-0.8 4.1-0.8h128"/>
		<path id="Shape 1" class="s2" d="m85.3 64c0 5.5 0 42.7 0 42.7m-21.3-21.4h42.7"/>
	</g>
</svg>