<svg version="1.2" xmlns="http://www.w3.org/2000/svg" viewBox="0 0 54 54" width="1026" height="1026">
	<title>manager-svg</title>
	<style>
		.s0 { fill: #ffffff;stroke: #2ca9bc;stroke-linecap: round;stroke-linejoin: round;stroke-width: 2.6 } 
	</style>
	<g id="Group_176">
		<path id="Path_552" class="s0" d="m6.3 46c0 0.7 3 2.4 6.4 2.4l0.4-0.4v-6"/>
		<path id="Path_553" class="s0" d="m47.8 46c0 0.7-3 2.4-6.4 2.4l-0.4-0.4v-6"/>
		<path id="Path_548" class="s0" d="m47.8 46c0-10.1-1.4-18.6-14.8-20.4q-1.1 1.4-2.7 2.1c-1 0.5-2.1 0.8-3.3 0.8-1.1 0-2.2-0.3-3.3-0.8-1-0.5-1.9-1.2-2.6-2.1-13.4 1.8-14.8 10.3-14.8 20.4"/>
		<path id="Path_549" class="s0" d="m35.3 11.7c0 5.8-4.1 10.9-8.3 10.9-4.1 0-7.9-5.1-8.2-10.9-0.3-5.7 3.2-10.4 8.2-10.4 5.1 0 8.3 4.7 8.3 10.4z"/>
		<path id="Path_550" class="s0" d="m35.3 11.7c0 5.8-4.1 10.9-8.3 10.9-4.1 0-7.9-5.1-8.2-10.9-0.3-5.7 3.2-10.4 8.2-10.4 5.1 0 8.3 4.7 8.3 10.4z"/>
		<path id="Path_551" class="s0" d="m14.1 36.2c-1.4 3.6-1.4 9.2-1.4 13.1q1.7 0.7 3.5 1.2 1.8 0.5 3.6 0.8 1.8 0.4 3.6 0.6 1.8 0.1 3.6 0.1 1.9 0 3.7-0.1 1.8-0.2 3.6-0.6 1.8-0.3 3.6-0.9 1.7-0.5 3.4-1.2c0-3.5 0-8.5-1-12"/>
		<path id="Path_554" class="s0" d=""/>
		<path id="Path_555" class="s0" d="m32.6 38.4h-3.7v-3.7h-3.7v3.7h-3.7v3.7h3.7v3.7h3.7v-3.7h3.7z"/>
	</g>
</svg>